<svg xmlns="http://www.w3.org/2000/svg" viewBox="0 0 15.86 15.84"><defs><style>.cls-1{fill:#fff;}</style></defs><title>cai_dat</title><g id="Layer_2" data-name="Layer 2"><g id="Layer_1-2" data-name="Layer 1"><path class="cls-1" d="M7.93,10.61a.37.37,0,0,0-.37.37v4.86H8.3V11a.37.37,0,0,0-.37-.37Zm0,0"/><path class="cls-1" d="M15.39,6.62l-1.48-.25a6.13,6.13,0,0,0-.66-1.59l.87-1.22a.57.57,0,0,0-.06-.73l-.53-.52L13,1.78a.59.59,0,0,0-.73,0l-1.22.87a6.09,6.09,0,0,0-1.59-.66L9.22.47A.57.57,0,0,0,8.66,0H7.19a.56.56,0,0,0-.56.47L6.39,1.95a5.85,5.85,0,0,0-1.63.68L3.55,1.78a.57.57,0,0,0-.73.06l-1,1a.57.57,0,0,0-.06.73l.87,1.23a6.19,6.19,0,0,0-.65,1.59L.47,6.67A.57.57,0,0,0,0,7.22V8.7a.56.56,0,0,0,.47.56L2,9.51a6.06,6.06,0,0,0,.67,1.58L1.78,12.3a.57.57,0,0,0,.06.73l.52.52.52.52a.57.57,0,0,0,.73.06l1.23-.87.35.19.1,0,.3.13.07,0,.37.13H6l.38.11.24.06V11.27A1.67,1.67,0,0,0,6.07,10,2.93,2.93,0,0,1,6.49,5.3a.09.09,0,0,1,.14.08V7.06A.91.91,0,0,0,7.54,8h.76a.91.91,0,0,0,.91-.91V5.29a.1.1,0,0,1,.14-.08,2.93,2.93,0,0,1,.49,4.89,1.68,1.68,0,0,0-.64,1.31V14l.31-.07.35-.1.1,0,.23-.09.18-.07.12-.06.24-.12.32-.17,1.22.87A.57.57,0,0,0,13,14l.52-.52.52-.52a.57.57,0,0,0,.06-.73L13.25,11a6.08,6.08,0,0,0,.66-1.59l1.48-.25a.57.57,0,0,0,.47-.56V7.17a.56.56,0,0,0-.47-.56Zm0,0"/></g></g></svg>