<svg xmlns="http://www.w3.org/2000/svg" viewBox="0 0 19.58 17.94"><defs><style>.cls-1{fill:#1b75bc;}</style></defs><title>CALENDA</title><g id="Layer_2" data-name="Layer 2"><g id="Layer_1-2" data-name="Layer 1"><path class="cls-1" d="M9.8,0h8.1a1.63,1.63,0,0,1,1.65,1.33,1.87,1.87,0,0,1,0,.36q0,7.28,0,14.55a1.62,1.62,0,0,1-1.67,1.68H1.67A1.62,1.62,0,0,1,0,16.27Q0,9,0,1.7A1.62,1.62,0,0,1,1.7,0ZM1.63,4.91v.24q0,5.12,0,10.23a.83.83,0,0,0,.93.92H17a.82.82,0,0,0,.93-.92q0-5.13,0-10.25V4.91Z"/><path class="cls-1" d="M3.26,8.14A1.63,1.63,0,1,1,4.88,9.77,1.64,1.64,0,0,1,3.26,8.14Z"/><path class="cls-1" d="M14.68,14.66a1.63,1.63,0,1,1,1.64-1.61A1.63,1.63,0,0,1,14.68,14.66Z"/><path class="cls-1" d="M11.42,8.15A1.63,1.63,0,1,1,9.79,6.51,1.62,1.62,0,0,1,11.42,8.15Z"/><path class="cls-1" d="M16.32,8.14a1.63,1.63,0,1,1-1.63-1.63A1.63,1.63,0,0,1,16.32,8.14Z"/><path class="cls-1" d="M4.89,14.66A1.63,1.63,0,1,1,6.53,13,1.63,1.63,0,0,1,4.89,14.66Z"/><path class="cls-1" d="M9.79,14.66A1.63,1.63,0,1,1,11.42,13,1.62,1.62,0,0,1,9.79,14.66Z"/></g></g></svg>