<svg xmlns="http://www.w3.org/2000/svg" viewBox="0 0 16.13 16"><defs><style>.cls-1{fill:#fff;}</style></defs><title>chi_tiet</title><g id="Layer_2" data-name="Layer 2"><g id="Layer_1-2" data-name="Layer 1"><path class="cls-1" d="M15.85,14.05,11.43,9.64a.93.93,0,0,0,.1-.29,6.12,6.12,0,0,0,.84-2.54c0-.21,0-.43,0-.64a6.25,6.25,0,0,0-.35-2A6.11,6.11,0,0,0,10.59,1.8a6.24,6.24,0,0,0-8.77,0,6.2,6.2,0,0,0-1.61,6,6,6,0,0,0,1.61,2.79A6.18,6.18,0,0,0,6.2,12.38a6.33,6.33,0,0,0,3.42-1l.16-.1,4.44,4.43a.91.91,0,0,0,.52.29h.1a.75.75,0,0,0,.32-.09,2,2,0,0,0,.39-.31l.2-.2A1.89,1.89,0,0,0,16,15a.72.72,0,0,0,.08-.36v-.08a.8.8,0,0,0-.28-.53ZM11.13,7.5A5.12,5.12,0,0,1,6.2,11.29,5.23,5.23,0,0,1,2.6,9.8a5.18,5.18,0,0,1,0-7.2A5.19,5.19,0,0,1,6.2,1.1,4.87,4.87,0,0,1,9.8,2.6,5.05,5.05,0,0,1,11.13,7.5Zm0,0"/><path class="cls-1" d="M6.22,8.66A4,4,0,0,1,4.38,8.2,7,7,0,0,1,2.26,6.47a.17.17,0,0,1,0-.25A6.77,6.77,0,0,1,4.65,4.37,3.7,3.7,0,0,1,6.34,4a3.92,3.92,0,0,1,1.55.42A6.84,6.84,0,0,1,9.9,6l.22.25a.16.16,0,0,1,0,.24A6.69,6.69,0,0,1,7.57,8.38,3.78,3.78,0,0,1,6.22,8.66ZM4.74,6.34A1.45,1.45,0,1,0,6.18,4.9,1.45,1.45,0,0,0,4.74,6.34Z"/><circle class="cls-1" cx="6.18" cy="6.37" r="0.9" transform="matrix(0, -1, 1, 0, -0.2, 12.55)"/></g></g></svg>