<svg xmlns="http://www.w3.org/2000/svg" viewBox="0 0 133.18 133.17"><defs><style>.cls-1{fill:#268fce;}.cls-2{fill:#f7f8f9;}.cls-3{fill:#fff;}</style></defs><title>logo</title><g id="Layer_2" data-name="Layer 2"><g id="Layer_1-2" data-name="Layer 1"><circle class="cls-1" cx="66.59" cy="66.59" r="66.59"/><path class="cls-2" d="M16.21,75.42a13.57,13.57,0,0,1,.7,2.28,4.26,4.26,0,0,1,0,2.63,1.89,1.89,0,0,1-1.43,1.27,2.09,2.09,0,0,1-2.22-1h0a2.26,2.26,0,0,1-1.77,2.24,2.33,2.33,0,0,1-2-.45A5,5,0,0,1,7.93,79.3a15.8,15.8,0,0,1-.32-2ZM9.09,78.65a7.39,7.39,0,0,0,.15.85c.23,1,.82,1.84,1.89,1.61s1.23-1.2,1-2.3L11.94,78Zm4-.89.18.82c.24,1.1.9,1.61,1.64,1.45s1.06-.89.83-1.9a4.55,4.55,0,0,0-.27-.89Z"/><path class="cls-2" d="M12.45,86.2l-2.65.1L9.25,84.7l9.4-.2.68,2-7.52,5.66-.57-1.66,2.14-1.59Zm2,2,1.85-1.38c.46-.34,1-.68,1.44-1v0c-.53,0-1.17.12-1.72.14L13.71,86Zm5-3.28c.61,0,.87.4,1.27.27a.39.39,0,0,0,.26-.52.86.86,0,0,0-.64-.44l.15-.63a1.59,1.59,0,0,1,1.4,1.08,1.14,1.14,0,0,1-.6,1.48c-.69.23-1-.31-1.77-.44Z"/><path class="cls-2" d="M20.14,98.8c-2.68,1.35-5,.49-6.13-1.72s-.12-4.54,2.22-5.72,5-.56,6.09,1.69S22.42,97.66,20.14,98.8ZM17,92.89c-1.62.81-2.51,2.28-1.8,3.68s2.41,1.55,4.08.71c1.5-.76,2.55-2.22,1.82-3.67S18.68,92.07,17,92.89Z"/><path class="cls-2" d="M27,101l-2.79,2.25,2.38,2.95L29.38,104l1,1.27-7,5.62-1-1.27,3.07-2.48-2.38-2.95L20,106.63l-1-1.27,7-5.62Z"/><path class="cls-2" d="M32.67,107.31l-6.21,6.44-1.18-1.13,6.21-6.44Z"/><path class="cls-2" d="M34.71,115.39,32,113.32l-1.61,2.09,3,2.3-.82,1.07-4.29-3.3,5.46-7.1,4.13,3.18-.82,1.06-2.84-2.18-1.41,1.83,2.68,2.06Zm2.86-6.69,0,2-.91-.7,0-1.09,0,0-1.05.3-.88-.68,1.92-.52Zm.31,1.25c.49-.33.95-.15,1.2-.47a.41.41,0,0,0-.09-.58.81.81,0,0,0-.79,0l-.22-.57a1.51,1.51,0,0,1,1.66.12,1.05,1.05,0,0,1,.29,1.48c-.41.54-.95.27-1.62.58Z"/><path class="cls-2" d="M43.07,120.36c.47-1.06,1-2.33,1.59-3.41l0,0c-.75.84-1.62,1.76-2.48,2.59l-2.9,2.89-1.13-.56.64-4c.2-1.18.46-2.42.75-3.52h0c-.56,1-1.24,2.28-1.85,3.34l-1.79,3.13-1.37-.68L39,112.41l1.92,1-.56,3.74c-.18,1.08-.41,2.16-.65,3.15l0,0c.65-.76,1.41-1.61,2.19-2.4l2.71-2.66,1.9.95L43,124.42l-1.43-.71Z"/><path class="cls-2" d="M53.17,127.19l-.54-2c-.22-.76-.36-1.28-.49-1.84h0c-.32.46-.66.87-1.17,1.46l-1.26,1.53L47.84,126l3.6-3.82-1.49-4.88,1.82.42.53,2c.16.61.27,1.09.39,1.63h0c.36-.49.63-.83,1-1.3l1.34-1.59,1.82.42-3.53,3.67L55,127.61Z"/><path class="cls-2" d="M58.8,125.52l-1,2.45-1.68-.17,3.72-8.62,2.07.2,2,9.19-1.74-.17-.56-2.6Zm2.67-1L61,122.28c-.12-.56-.21-1.18-.29-1.71h0c-.18.5-.38,1.11-.58,1.62l-.9,2.13Zm-2.23-6c.07-1,.51-1.5,1.11-1.44a1.54,1.54,0,0,1,.79.34,1.34,1.34,0,0,0,.58.31c.21,0,.33-.09.41-.5l.78.07c-.09,1-.47,1.45-1.12,1.39a1.62,1.62,0,0,1-.81-.33,1.35,1.35,0,0,0-.57-.29c-.18,0-.32.17-.39.53Z"/><path class="cls-2" d="M69.87,119.59l.28,3.57,3.78-.3-.28-3.57,1.63-.13.7,8.92-1.62.13L74,124.28l-3.77.3.31,3.93-1.63.13-.71-8.92Z"/><path class="cls-2" d="M85.33,121.25c.75,2.91-.59,5-3,5.64s-4.47-.84-5.12-3.39.5-5,2.95-5.6S84.69,118.78,85.33,121.25Zm-5.09-5.34L82,117.1l-1.18.3-.94-.65h0l-.5,1-1.17.3.91-1.87ZM78.89,123c.45,1.76,1.7,2.94,3.22,2.55s2-2,1.56-3.85c-.42-1.63-1.63-3-3.21-2.56S78.43,121.25,78.89,123Zm3.19,5.69a.81.81,0,0,1,.6-1,.78.78,0,0,1,.95.58.8.8,0,0,1-.56,1A.83.83,0,0,1,82.08,128.73Z"/><path class="cls-2" d="M86.62,115.87,90,124.18l-1.52.61-3.35-8.31Z"/><path class="cls-2" d="M96.33,121l-7.1-6.18,1.52-.92,3.14,2.85c.88.79,1.67,1.54,2.44,2.35h0c-.35-1-.63-2.13-.89-3.25l-1-4.18,1.49-.9,2,9.26Z"/><path class="cls-2" d="M97.67,109.3l5.44,7.1-1.3,1-5.44-7.11Z"/><path class="cls-2" d="M106,108.64l-2.48,2.28,1.78,1.93L108,110.3l.91,1-4,3.66-6.06-6.58,3.83-3.52.91,1L101,108.25l1.57,1.7,2.48-2.28Zm-6.05-4,2.07.23-.9.83-1.13-.13,0,0,0,1.13-.89.82L99,105.49Zm7.66,10.42a.8.8,0,0,1,1.17-1.08.8.8,0,1,1-1.17,1.08Z"/><path class="cls-2" d="M105.84,103.41l-1.67,1.93-1-.9,4.43-5.1,1,.9-1.69,1.95,5.73,5-1.07,1.23Z"/><path class="cls-2" d="M117.1,101.48l-7.54-4.82,1-1.57,4.48.12a24.19,24.19,0,0,1,3.35.33v0c-1.07-.55-2.06-1.15-3.21-1.88L112.57,92l.82-1.27,7.53,4.82L120,96.93l-4.57-.15a31.29,31.29,0,0,1-3.47-.32v0c1,.57,2,1.19,3.25,2l2.69,1.73Z"/><path class="cls-2" d="M120.67,90.58l1.92,1.83-.76,1.51-6.7-6.59.94-1.86,9.3,1.43-.79,1.56L122,88Zm.05-2.84-2.29-.36c-.56-.09-1.18-.24-1.7-.35v0c.4.35.9.75,1.3,1.13l1.66,1.61Z"/><path class="cls-2" d="M125.35,76.89c-1.1-.36-2.43-.79-3.55-1.22l0,0c.92.66,1.92,1.43,2.84,2.2l3.17,2.58-.44,1.18-4-.22c-1.19-.08-2.45-.21-3.57-.38v0c1.08.45,2.39,1,3.51,1.48l3.3,1.45L126,85.46l-8.16-3.7.75-2,3.78.17c1.09.07,2.18.18,3.2.32v0c-.82-.56-1.75-1.23-2.61-1.93l-2.92-2.42.75-2,8.56,2.66L128.84,78Z"/><path class="cls-3" d="M102.46,32.5c-6.57-8.23-16.39-3-16.39-3,1.45-7.75-1.45-13.56-8.3-16A34.83,34.83,0,0,1,66.5,6.7c-.35.69-3.32,3.18-12.31,7.05s-7.61,14.94-7.61,14.94c-5-1.77-11.62-2.42-17,3.75S20.52,41,20.52,41c4.33,5.89.64,15.21,5.16,19.65,3.29,3.23,10.1,5.8,10.1,5.8-7.46,6.72-6,11.51-2.3,17.77a42.7,42.7,0,0,1,4.69,10.5C46,94.27,51.25,98.33,57,96.67a14.39,14.39,0,0,0,4.13-2.15V112.9H71.49V94.7a12.14,12.14,0,0,0,9.59,2.43A105.7,105.7,0,0,1,95,95.56c.28-3.77,1.38-4.51,6.36-12.71s-3-15.63-3-15.63c8.16-1.45,11.83-8,11.69-15a19,19,0,0,1,3.11-11.28S109,40.73,102.46,32.5ZM103.9,53.1c.12,6-3,11.51-10,12.75,0,0,6.79,6.32,2.53,13.28S91.2,86.72,91,89.93A91.45,91.45,0,0,0,79,91.26a10.19,10.19,0,0,1-7.57-1.63c0-3.9.26-13.37,2.48-18.84,3.23-8,17.73-25.12,17.73-25.12h-7S71.75,58.49,66.82,72.86l-.33,1.38-.35-1.38c-5.24-14.37-19-27.2-19-27.2h-7.5S54.65,63,58.55,70.78c2.72,5.43,2.8,14.79,2.7,18.75a11,11,0,0,1-2.8,1.33c-5,1.41-9.47-2-16.18-1.64a36.18,36.18,0,0,0-4-8.92c-3.16-5.32-4.42-9.39,2-15.09,0,0-5.84-2.18-8.66-4.93-3.88-3.77-.71-11.69-4.42-16.69a41.22,41.22,0,0,0,7.79-7.28c4.58-5.24,10.3-4.69,14.54-3.18,0,0-1.19-9.4,6.52-12.69s10.26-5.41,10.55-6a29.91,29.91,0,0,0,9.66,5.76c5.87,2.11,8.36,7.05,7.12,13.63,0,0,8.42-4.47,14,2.53s9.19,7.17,9.19,7.17A16,16,0,0,0,103.9,53.1Z"/><circle class="cls-2" cx="66.27" cy="52.23" r="7.23"/></g></g></svg>