<svg xmlns="http://www.w3.org/2000/svg" viewBox="0 0 135.71 135.68"><defs><style>.cls-1{fill:#288ecd;}.cls-2{fill:#f6f7f8;}.cls-3{fill:#fff;}</style></defs><title>Logo</title><g id="Layer_2" data-name="Layer 2"><g id="Layer_1-2" data-name="Layer 1"><circle class="cls-1" cx="67.47" cy="69.02" r="66.59"/><path class="cls-2" d="M17.09,77.85a13.57,13.57,0,0,1,.7,2.28,4.26,4.26,0,0,1,0,2.63A1.89,1.89,0,0,1,16.35,84a2.09,2.09,0,0,1-2.22-1h0a2.26,2.26,0,0,1-1.77,2.24,2.33,2.33,0,0,1-2-.45,5,5,0,0,1-1.53-3.06,15.8,15.8,0,0,1-.32-2ZM10,81.08a7.39,7.39,0,0,0,.15.85c.23,1,.82,1.84,1.89,1.61s1.23-1.2,1-2.3l-.18-.79Zm4-.89.18.82c.24,1.1.9,1.61,1.64,1.45s1.06-.89.83-1.9a4.55,4.55,0,0,0-.27-.89Z"/><path class="cls-2" d="M13.33,88.63l-2.65.1-.55-1.59,9.4-.2.68,2-7.52,5.66-.57-1.66,2.14-1.59Zm2,2,1.85-1.38c.46-.34,1-.68,1.44-1v0c-.53,0-1.17.12-1.72.14l-2.31.07Zm5-3.28c.61,0,.87.4,1.27.27a.39.39,0,0,0,.26-.52.86.86,0,0,0-.64-.44l.15-.63a1.59,1.59,0,0,1,1.4,1.08,1.14,1.14,0,0,1-.6,1.48c-.69.23-1-.31-1.77-.44Z"/><path class="cls-2" d="M21,101.23c-2.68,1.35-5,.49-6.13-1.72s-.12-4.54,2.22-5.72,5-.56,6.09,1.69S23.29,100.09,21,101.23Zm-3.11-5.9c-1.62.81-2.51,2.28-1.8,3.68s2.41,1.55,4.08.71C21.69,99,22.74,97.5,22,96S19.56,94.5,17.91,95.32Z"/><path class="cls-2" d="M27.88,103.44l-2.79,2.25,2.38,2.95,2.79-2.25,1,1.27-7,5.62-1-1.27,3.07-2.48L24,106.58l-3.07,2.48-1-1.27,7-5.62Z"/><path class="cls-2" d="M33.55,109.74l-6.21,6.44L26.16,115l6.21-6.44Z"/><path class="cls-2" d="M35.59,117.81l-2.68-2.06-1.61,2.09,3,2.3-.82,1.07-4.29-3.3,5.46-7.1L38.79,114,38,115l-2.84-2.18-1.41,1.83,2.68,2.06Zm2.86-6.69,0,2-.91-.7,0-1.09,0,0-1.05.3-.88-.68,1.92-.52Zm.31,1.25c.49-.33.95-.15,1.2-.47a.41.41,0,0,0-.09-.58.81.81,0,0,0-.79,0l-.22-.57a1.51,1.51,0,0,1,1.66.12,1.05,1.05,0,0,1,.29,1.48c-.41.54-.95.27-1.62.58Z"/><path class="cls-2" d="M43.95,122.79c.47-1.06,1-2.33,1.59-3.41l0,0c-.75.84-1.62,1.76-2.48,2.59l-2.9,2.89L39,124.28l.64-4c.2-1.18.46-2.42.75-3.52h0c-.56,1-1.24,2.28-1.85,3.34l-1.79,3.13-1.37-.68,4.54-7.74,1.92,1-.56,3.74c-.18,1.08-.41,2.16-.65,3.15l0,0c.65-.76,1.41-1.61,2.19-2.4l2.71-2.66,1.9.95-3.54,8.24-1.43-.71Z"/><path class="cls-2" d="M54,129.62l-.54-2c-.22-.76-.36-1.28-.49-1.84h0c-.32.46-.66.87-1.17,1.46l-1.26,1.53-1.82-.42,3.6-3.82-1.49-4.88,1.82.42.53,2c.16.61.27,1.09.39,1.63h0c.36-.49.63-.83,1-1.3L56,120.88l1.82.42L54.25,125,55.88,130Z"/><path class="cls-2" d="M59.68,128l-1,2.45L57,130.24l3.72-8.62,2.07.2,2,9.19-1.74-.17-.56-2.6Zm2.67-1-.49-2.26c-.12-.56-.21-1.18-.29-1.71h0c-.18.5-.38,1.11-.58,1.62l-.9,2.13Zm-2.23-6c.07-1,.51-1.5,1.11-1.44a1.54,1.54,0,0,1,.79.34,1.34,1.34,0,0,0,.58.31c.21,0,.33-.09.41-.5l.78.07c-.09,1-.47,1.45-1.12,1.39a1.62,1.62,0,0,1-.81-.33,1.35,1.35,0,0,0-.57-.29c-.18,0-.32.17-.39.53Z"/><path class="cls-2" d="M70.75,122l.28,3.57,3.78-.3-.28-3.57,1.63-.13.7,8.92-1.62.13-.31-3.93-3.77.3.31,3.93-1.63.13-.71-8.92Z"/><path class="cls-2" d="M86.21,123.68c.75,2.91-.59,5-3,5.64s-4.47-.84-5.12-3.39.5-5,2.95-5.6S85.57,121.21,86.21,123.68Zm-5.09-5.34,1.72,1.19-1.18.3-.94-.65h0l-.5,1-1.17.3.91-1.87Zm-1.35,7.14c.45,1.76,1.7,2.94,3.22,2.55s2-2,1.56-3.85c-.42-1.63-1.63-3-3.21-2.56S79.31,123.68,79.77,125.47ZM83,131.16a.81.81,0,0,1,.6-1,.78.78,0,0,1,.95.58.8.8,0,0,1-.56,1A.83.83,0,0,1,83,131.16Z"/><path class="cls-2" d="M87.5,118.3l3.35,8.31-1.52.61L86,118.91Z"/><path class="cls-2" d="M97.21,123.46l-7.1-6.18,1.52-.92,3.14,2.85c.88.79,1.67,1.54,2.44,2.35h0c-.35-1-.63-2.13-.89-3.25l-1-4.18,1.49-.9,2,9.26Z"/><path class="cls-2" d="M98.54,111.73l5.44,7.1-1.3,1-5.44-7.11Z"/><path class="cls-2" d="M106.83,111.07l-2.48,2.28,1.78,1.93,2.77-2.55.91,1-4,3.66-6.06-6.58,3.83-3.52.91,1-2.63,2.42,1.57,1.7,2.48-2.28Zm-6.05-4,2.07.23-.9.83-1.13-.13,0,0,0,1.13L100,110l-.08-2.07Zm7.66,10.42a.8.8,0,0,1,1.17-1.08.8.8,0,1,1-1.17,1.08Z"/><path class="cls-2" d="M106.72,105.84,105,107.77l-1-.9,4.43-5.1,1,.9-1.69,1.95,5.73,5-1.07,1.23Z"/><path class="cls-2" d="M118,103.91l-7.54-4.82,1-1.57,4.48.12a24.19,24.19,0,0,1,3.35.33v0c-1.07-.55-2.06-1.15-3.21-1.88l-2.63-1.69.82-1.27,7.53,4.82-.91,1.42-4.57-.15a31.29,31.29,0,0,1-3.47-.32v0c1,.57,2,1.19,3.25,2l2.69,1.73Z"/><path class="cls-2" d="M121.55,93l1.92,1.83-.76,1.51L116,89.75l.94-1.86,9.3,1.43-.79,1.56-2.63-.42Zm.05-2.84-2.29-.36c-.56-.09-1.18-.24-1.7-.35v0c.4.35.9.75,1.3,1.13l1.66,1.61Z"/><path class="cls-2" d="M126.23,79.32c-1.1-.36-2.43-.79-3.55-1.22l0,0c.92.66,1.92,1.43,2.84,2.2l3.17,2.58-.44,1.18-4-.22c-1.19-.08-2.45-.21-3.57-.38v0c1.08.45,2.39,1,3.51,1.48l3.3,1.45-.54,1.43-8.16-3.7.75-2,3.78.17c1.09.07,2.18.18,3.2.32v0c-.82-.56-1.75-1.23-2.61-1.93L121,78.28l.75-2L130.27,79l-.56,1.49Z"/><path class="cls-3" d="M103.34,34.93c-6.57-8.23-16.39-3-16.39-3,1.45-7.75-1.45-13.56-8.3-16A34.83,34.83,0,0,1,67.37,9.13c-.35.69-3.32,3.18-12.31,7.05s-7.61,14.94-7.61,14.94c-5-1.77-11.62-2.42-17,3.75s-9.09,8.57-9.09,8.57c4.33,5.89.64,15.21,5.16,19.65,3.29,3.23,10.1,5.8,10.1,5.8-7.46,6.72-6,11.51-2.3,17.77A42.7,42.7,0,0,1,39,97.16c7.83-.46,13.08,3.59,18.88,1.93a14.39,14.39,0,0,0,4.13-2.15v18.38H72.37V97.13A12.14,12.14,0,0,0,82,99.56,105.7,105.7,0,0,1,95.86,98c.28-3.77,1.38-4.51,6.36-12.71s-3-15.63-3-15.63c8.16-1.45,11.83-8,11.69-15a19,19,0,0,1,3.11-11.28S109.91,43.16,103.34,34.93Zm1.44,20.61c.12,6-3,11.51-10,12.75,0,0,6.79,6.32,2.53,13.28s-5.21,7.59-5.45,10.79a91.45,91.45,0,0,0-11.92,1.33,10.19,10.19,0,0,1-7.57-1.63c0-3.9.26-13.37,2.48-18.84,3.23-8,17.73-25.12,17.73-25.12h-7S72.62,60.92,67.7,75.29l-.33,1.38L67,75.29c-5.24-14.37-19-27.2-19-27.2h-7.5s15,17.32,18.89,25.12C62.15,78.64,62.23,88,62.13,92a11,11,0,0,1-2.8,1.33c-5,1.41-9.47-2-16.18-1.64a36.18,36.18,0,0,0-4-8.92c-3.16-5.32-4.42-9.39,2-15.09,0,0-5.84-2.18-8.66-4.93C28.56,58.94,31.72,51,28,46a41.22,41.22,0,0,0,7.79-7.28c4.58-5.24,10.3-4.69,14.54-3.18,0,0-1.19-9.4,6.52-12.69s10.26-5.41,10.55-6a29.91,29.91,0,0,0,9.66,5.76c5.87,2.11,8.36,7.05,7.12,13.63,0,0,8.42-4.47,14,2.53S107.44,46,107.44,46A16,16,0,0,0,104.78,55.53Z"/><circle class="cls-2" cx="67.15" cy="54.66" r="7.23"/><path class="cls-3" d="M46.1,132.08A67.87,67.87,0,0,1,37,7.39,68.44,68.44,0,0,1,62.9.17a68,68,0,0,1,50,16.94,67.85,67.85,0,0,1-66.82,115Zm0,0a66.61,66.61,0,0,0,25.75,3.29A65.39,65.39,0,0,0,129.34,90,65.37,65.37,0,1,0,23.65,119,66.61,66.61,0,0,0,46.1,132.08Z"/></g></g></svg>