<svg xmlns="http://www.w3.org/2000/svg" viewBox="0 0 21.07 21.5"><defs><style>.cls-1{fill:#268fce;}</style></defs><title>reset_1</title><g id="Layer_2" data-name="Layer 2"><g id="Layer_1-2" data-name="Layer 1"><path class="cls-1" d="M5.63,5.86a7.12,7.12,0,0,1,8.75-1l-2,2c-.75.9.09,1.42.52,1.41h7a.48.48,0,0,0,.48-.48V.85A.76.76,0,0,0,19,.31l-2,2A10.66,10.66,0,0,0,0,11.35H3.58A7.09,7.09,0,0,1,5.63,5.86Zm0,0"/><path class="cls-1" d="M17.5,10.15A7.1,7.1,0,0,1,6.69,16.68l2-2c.75-.9-.09-1.42-.52-1.41h-7a.48.48,0,0,0-.48.48v6.89a.76.76,0,0,0,1.38.54l2-2a10.66,10.66,0,0,0,16.95-9.08Zm0,0"/></g></g></svg>