<svg xmlns="http://www.w3.org/2000/svg" viewBox="0 0 30 30"><defs><style>.cls-1{fill:#fff;}</style></defs><title>user_1</title><g id="Layer_2" data-name="Layer 2"><g id="Layer_1-2" data-name="Layer 1"><path class="cls-1" d="M30,15A15,15,0,1,0,4.87,26.05h0l.48.41.1.08c.26.21.53.42.8.61l.27.19c.29.2.59.39.9.57l.2.12c.33.19.68.37,1,.53l.08,0a15.11,15.11,0,0,0,3.63,1.15l.1,0q.59.1,1.2.16h.15c.4,0,.81.05,1.22.05s.81,0,1.21-.05h.15c.4,0,.8-.09,1.19-.16l.1,0a14.78,14.78,0,0,0,3.57-1.12l.12-.06c.34-.16.67-.33,1-.51l.24-.14c.29-.17.58-.35.86-.55l.3-.21c.24-.17.48-.35.7-.54l.16-.12.5-.42h0A15,15,0,0,0,30,15ZM1.09,15A13.91,13.91,0,1,1,24.23,25.4a4,4,0,0,0-.49-.29L19.12,22.8a1.21,1.21,0,0,1-.67-1.09V20.1c.11-.13.22-.28.34-.45a11.07,11.07,0,0,0,1.43-2.79,2,2,0,0,0,1.14-1.8V13.13a2,2,0,0,0-.48-1.29V9.29a4.41,4.41,0,0,0-1-3.2c-1-1.15-2.63-1.73-4.84-1.73s-3.83.58-4.84,1.73a4.41,4.41,0,0,0-1,3.2v2.55a2,2,0,0,0-.48,1.29v1.93a2,2,0,0,0,.73,1.54,10.17,10.17,0,0,0,1.69,3.48v1.58a1.22,1.22,0,0,1-.63,1.07L6.12,25.09a3.8,3.8,0,0,0-.41.26A13.88,13.88,0,0,1,1.09,15Zm0,0"/></g></g></svg>